<?xml version="1.0" encoding="UTF-8" standalone="no"?>
<!-- Created with Inkscape (http://www.inkscape.org/) -->

<svg
   width="120mm"
   height="120mm"
   viewBox="0 0 120 120"
   version="1.1"
   id="svg5"
   inkscape:version="1.2.2 (b0a8486541, 2022-12-01)"
   sodipodi:docname="logo.svg"
   xmlns:inkscape="http://www.inkscape.org/namespaces/inkscape"
   xmlns:sodipodi="http://sodipodi.sourceforge.net/DTD/sodipodi-0.dtd"
   xmlns:xlink="http://www.w3.org/1999/xlink"
   xmlns="http://www.w3.org/2000/svg"
   xmlns:svg="http://www.w3.org/2000/svg">
  <sodipodi:namedview
     id="namedview7"
     pagecolor="#ffffff"
     bordercolor="#111111"
     borderopacity="1"
     inkscape:showpageshadow="0"
     inkscape:pageopacity="0"
     inkscape:pagecheckerboard="1"
     inkscape:deskcolor="#d1d1d1"
     inkscape:document-units="mm"
     showgrid="true"
     inkscape:zoom="1.6819304"
     inkscape:cx="245.55118"
     inkscape:cy="134.36941"
     inkscape:window-width="2248"
     inkscape:window-height="2978"
     inkscape:window-x="0"
     inkscape:window-y="20"
     inkscape:window-maximized="1"
     inkscape:current-layer="layer1">
    <inkscape:grid
       type="xygrid"
       id="grid686"
       dotted="true"
       originx="-39.999993"
       originy="-79.999809" />
  </sodipodi:namedview>
  <defs
     id="defs2">
    <linearGradient
       inkscape:collect="always"
       id="linearGradient2117">
      <stop
         style="stop-color:#ff75da;stop-opacity:1;"
         offset="0"
         id="stop2113" />
      <stop
         style="stop-color:#ffa511;stop-opacity:1;"
         offset="1"
         id="stop2115" />
    </linearGradient>
    <linearGradient
       inkscape:collect="always"
       id="linearGradient1777">
      <stop
         style="stop-color:#55001c;stop-opacity:1;"
         offset="0"
         id="stop1773" />
      <stop
         style="stop-color:#85004a;stop-opacity:1;"
         offset="1"
         id="stop1775" />
    </linearGradient>
    <linearGradient
       inkscape:collect="always"
       xlink:href="#linearGradient1777"
       id="linearGradient1779"
       x1="50"
       y1="170"
       x2="175.2775"
       y2="130"
       gradientUnits="userSpaceOnUse" />
    <linearGradient
       inkscape:collect="always"
       xlink:href="#linearGradient2117"
       id="linearGradient1811"
       x1="70"
       y1="190"
       x2="156.83931"
       y2="112.50229"
       gradientUnits="userSpaceOnUse" />
    <linearGradient
       inkscape:collect="always"
       xlink:href="#linearGradient2117"
       id="linearGradient2188"
       gradientUnits="userSpaceOnUse"
       x1="70"
       y1="190"
       x2="156.83931"
       y2="112.50229" />
    <linearGradient
       inkscape:collect="always"
       xlink:href="#linearGradient2117"
       id="linearGradient2228"
       gradientUnits="userSpaceOnUse"
       x1="70"
       y1="190"
       x2="156.83931"
       y2="112.50229"
       gradientTransform="rotate(6,124.68221,159.24901)" />
    <clipPath
       clipPathUnits="userSpaceOnUse"
       id="clipPath2276">
      <circle
         style="fill:none;fill-opacity:1;stroke:#000000;stroke-width:0.015;stroke-opacity:1;stop-color:#000000"
         id="circle2278"
         cx="109.99999"
         cy="150"
         r="60" />
    </clipPath>
  </defs>
  <g
     inkscape:label="Layer 1"
     inkscape:groupmode="layer"
     id="layer1"
     transform="translate(-39.999992,-79.999809)">
    <g
       id="g2251"
       clip-path="url(#clipPath2276)"
       transform="translate(-10,-10.000191)">
      <circle
         style="opacity:1;fill:url(#linearGradient1779);fill-opacity:1;stroke:#000000;stroke-width:0.015;stop-color:#000000"
         id="path790"
         cx="109.99999"
         cy="150"
         r="60" />
      <path
         id="path1419"
         style="opacity:0.295499;fill:url(#linearGradient1811);fill-opacity:1;stroke:none;stroke-width:0.015;stroke-opacity:1;stop-color:#000000"
         d="m 110,90.000191 a 60,60 0 0 0 -29.98783,8.059457 l 9.988021,17.299202 a 40,40 0 0 1 2.644283,-1.39785 40,40 0 0 1 2.741952,-1.19579 40,40 0 0 1 2.8236,-0.98805 40,40 0 0 1 2.889234,-0.77412 40,40 0 0 1 2.93883,-0.55603 40,40 0 0 1 2.97295,-0.33538 A 40,40 0 0 1 110,110 Z m 29.98422,8.065141 -9.98595,17.296098 a 40,40 0 0 1 0.59324,0.34624 40,40 0 0 1 0.87643,0.54157 40,40 0 0 1 0.86197,0.56378 40,40 0 0 1 0.84697,0.58602 40,40 0 0 1 0.83148,0.60719 40,40 0 0 1 0.81597,0.62891 40,40 0 0 1 0.79943,0.64957 40,40 0 0 1 0.78238,0.67024 40,40 0 0 1 0.76482,0.68988 40,40 0 0 1 0.74672,0.709 40,40 0 0 1 0.72864,0.72864 40,40 0 0 1 0.709,0.74673 40,40 0 0 1 0.68988,0.76481 40,40 0 0 1 0.67024,0.78238 40,40 0 0 1 0.64957,0.79943 40,40 0 0 1 0.62839,0.81546 40,40 0 0 1 0.60771,0.83199 40,40 0 0 1 0.58602,0.84697 40,40 0 0 1 0.56379,0.86197 40,40 0 0 1 0.54156,0.87591 40,40 0 0 1 0.34624,0.59325 l 17.27543,-9.97407 A 60,60 0 0 0 139.98422,98.065332 Z M 58.070357,120.01851 a 60,60 0 0 0 -8.070308,29.98164 h 19.999813 a 40,40 0 0 1 0.112138,-2.98949 40,40 0 0 1 0.334863,-2.97242 40,40 0 0 1 0.556038,-2.93884 40,40 0 0 1 0.774113,-2.88975 40,40 0 0 1 0.988054,-2.82308 40,40 0 0 1 1.196309,-2.74195 40,40 0 0 1 1.397847,-2.64429 z m 91.929793,29.98164 a 40,40 0 0 1 -0.11214,2.98896 40,40 0 0 1 -0.33486,2.97243 40,40 0 0 1 -0.55604,2.93936 40,40 0 0 1 -0.77412,2.88922 40,40 0 0 1 -0.98805,2.8236 40,40 0 0 1 -1.19631,2.74144 40,40 0 0 1 -1.39785,2.6448 l 17.29972,9.98802 a 60,60 0 0 0 8.05946,-29.98783 z m -74.640926,19.99981 -17.273364,9.97303 a 60,60 0 0 0 21.929928,21.96145 l 9.984403,-17.29351 a 40,40 0 0 1 -2.533178,-1.59112 40,40 0 0 1 -2.406572,-1.77664 40,40 0 0 1 -2.267562,-1.9513 40,40 0 0 1 -2.115116,-2.11512 40,40 0 0 1 -1.950785,-2.26704 40,40 0 0 1 -1.776636,-2.40709 40,40 0 0 1 -1.591118,-2.53266 z m 54.640596,14.64097 a 40,40 0 0 1 -2.64429,1.39784 40,40 0 0 1 -2.74195,1.19631 40,40 0 0 1 -2.8236,0.98806 40,40 0 0 1 -2.88923,0.77411 40,40 0 0 1 -2.93884,0.55604 40,40 0 0 1 -2.97294,0.33486 A 40,40 0 0 1 110,189.99977 v 20.00033 a 60,60 0 0 0 29.98164,-8.07031 z" />
      <path
         id="path1419-5"
         style="opacity:0.156348;fill:url(#linearGradient2188);fill-opacity:1;stroke:none;stroke-width:0.015;stroke-opacity:1;stop-color:#000000"
         d="m 110,90.000191 a 60,60 0 0 0 -29.98783,8.059457 l 9.988021,17.299202 a 40,40 0 0 1 2.644283,-1.39785 40,40 0 0 1 2.741952,-1.19579 40,40 0 0 1 2.8236,-0.98805 40,40 0 0 1 2.889234,-0.77412 40,40 0 0 1 2.93883,-0.55603 40,40 0 0 1 2.97295,-0.33538 A 40,40 0 0 1 110,110 Z m 29.98422,8.065141 -9.98595,17.296098 a 40,40 0 0 1 0.59324,0.34624 40,40 0 0 1 0.87643,0.54157 40,40 0 0 1 0.86197,0.56378 40,40 0 0 1 0.84697,0.58602 40,40 0 0 1 0.83148,0.60719 40,40 0 0 1 0.81597,0.62891 40,40 0 0 1 0.79943,0.64957 40,40 0 0 1 0.78238,0.67024 40,40 0 0 1 0.76482,0.68988 40,40 0 0 1 0.74672,0.709 40,40 0 0 1 0.72864,0.72864 40,40 0 0 1 0.709,0.74673 40,40 0 0 1 0.68988,0.76481 40,40 0 0 1 0.67024,0.78238 40,40 0 0 1 0.64957,0.79943 40,40 0 0 1 0.62839,0.81546 40,40 0 0 1 0.60771,0.83199 40,40 0 0 1 0.58602,0.84697 40,40 0 0 1 0.56379,0.86197 40,40 0 0 1 0.54156,0.87591 40,40 0 0 1 0.34624,0.59325 l 17.27543,-9.97407 A 60,60 0 0 0 139.98422,98.065332 Z M 58.070357,120.01851 a 60,60 0 0 0 -8.070308,29.98164 h 19.999813 a 40,40 0 0 1 0.112138,-2.98949 40,40 0 0 1 0.334863,-2.97242 40,40 0 0 1 0.556038,-2.93884 40,40 0 0 1 0.774113,-2.88975 40,40 0 0 1 0.988054,-2.82308 40,40 0 0 1 1.196309,-2.74195 40,40 0 0 1 1.397847,-2.64429 z m 91.929793,29.98164 a 40,40 0 0 1 -0.11214,2.98896 40,40 0 0 1 -0.33486,2.97243 40,40 0 0 1 -0.55604,2.93936 40,40 0 0 1 -0.77412,2.88922 40,40 0 0 1 -0.98805,2.8236 40,40 0 0 1 -1.19631,2.74144 40,40 0 0 1 -1.39785,2.6448 l 17.29972,9.98802 a 60,60 0 0 0 8.05946,-29.98783 z m -74.640926,19.99981 -17.273364,9.97303 a 60,60 0 0 0 21.929928,21.96145 l 9.984403,-17.29351 a 40,40 0 0 1 -2.533178,-1.59112 40,40 0 0 1 -2.406572,-1.77664 40,40 0 0 1 -2.267562,-1.9513 40,40 0 0 1 -2.115116,-2.11512 40,40 0 0 1 -1.950785,-2.26704 40,40 0 0 1 -1.776636,-2.40709 40,40 0 0 1 -1.591118,-2.53266 z m 54.640596,14.64097 a 40,40 0 0 1 -2.64429,1.39784 40,40 0 0 1 -2.74195,1.19631 40,40 0 0 1 -2.8236,0.98806 40,40 0 0 1 -2.88923,0.77411 40,40 0 0 1 -2.93884,0.55604 40,40 0 0 1 -2.97294,0.33486 A 40,40 0 0 1 110,189.99977 v 20.00033 a 60,60 0 0 0 29.98164,-8.07031 z" />
      <path
         style="fill:#fff78d;fill-opacity:0.485136;stroke:none;stroke-width:0.0992182px;stroke-linecap:butt;stroke-linejoin:miter;stroke-opacity:1"
         d="m 95,135 c 1.5,3 1.5,27 0,30 3,-1.5 27,-1.5 30,0 -1.5,-3 -1.5,-27 0,-30 -3,1.5 -27,1.5 -30,0 z"
         id="path1965"
         sodipodi:nodetypes="ccccc" />
      <path
         id="path1419-5-6"
         style="opacity:0.156348;fill:url(#linearGradient2228);fill-opacity:1;stroke:none;stroke-width:0.015;stroke-opacity:1;stop-color:#000000"
         d="m 117.31888,88.844837 a 60,60 0 0 0 -30.665975,4.880724 l 8.125045,18.248469 a 40,40 0 0 1 2.775905,-1.11379 40,40 0 0 1 2.851915,-0.90263 40,40 0 0 1 2.91141,-0.68749 40,40 0 0 1 2.95433,-0.46787 40,40 0 0 1 2.98085,-0.24579 40,40 0 0 1 2.99172,-0.0228 40,40 0 0 1 2.98425,0.20141 z M 146.29581,100 134.55663,116.15753 a 40,40 0 0 1 0.5538,0.40636 40,40 0 0 1 0.81502,0.63021 40,40 0 0 1 0.79831,0.65079 40,40 0 0 1 0.78108,0.67135 40,40 0 0 1 0.76345,0.69077 40,40 0 0 1 0.74577,0.71076 40,40 0 0 1 0.72715,0.72957 40,40 0 0 1 0.70803,0.74835 40,40 0 0 1 0.68852,0.76605 40,40 0 0 1 0.66852,0.78317 40,40 0 0 1 0.64848,0.80081 40,40 0 0 1 0.62707,0.81675 40,40 0 0 1 0.60615,0.83273 40,40 0 0 1 0.58479,0.84816 40,40 0 0 1 0.56245,0.86295 40,40 0 0 1 0.53971,0.87667 40,40 0 0 1 0.51741,0.89096 40,40 0 0 1 0.49428,0.90358 40,40 0 0 1 0.4706,0.91619 40,40 0 0 1 0.44704,0.92772 40,40 0 0 1 0.28233,0.62619 l 18.22336,-8.11366 A 60,60 0 0 0 146.29581,100 Z m -83.759845,13.27059 a 60,60 0 0 0 -11.160032,28.97382 l 19.890252,2.09055 a 40,40 0 0 1 0.42401,-2.9614 40,40 0 0 1 0.643731,-2.92113 40,40 0 0 1 0.860185,-2.86462 40,40 0 0 1 1.071933,-2.793 40,40 0 0 1 1.277734,-2.70434 40,40 0 0 1 1.476367,-2.60188 40,40 0 0 1 1.666593,-2.48369 z m 88.292235,39.42667 a 40,40 0 0 1 -0.42395,2.96087 40,40 0 0 1 -0.64373,2.92114 40,40 0 0 1 -0.86024,2.86514 40,40 0 0 1 -1.07189,2.79247 40,40 0 0 1 -1.27778,2.70486 40,40 0 0 1 -1.47632,2.60137 40,40 0 0 1 -1.66665,2.4842 l 16.16092,11.74161 a 60,60 0 0 0 11.14989,-28.98111 z m -76.322562,12.08815 -18.221204,8.11284 a 60,60 0 0 0 19.514197,24.13344 l 11.737371,-16.15512 a 40,40 0 0 1 -2.352983,-1.84719 40,40 0 0 1 -2.207679,-2.01846 40,40 0 0 1 -2.051174,-2.17764 40,40 0 0 1 -1.882439,-2.32462 40,40 0 0 1 -1.703128,-2.45853 40,40 0 0 1 -1.515294,-2.57962 40,40 0 0 1 -1.317667,-2.6851 z m 52.810852,20.27226 a 40,40 0 0 1 -2.77592,1.11378 40,40 0 0 1 -2.85198,0.90315 40,40 0 0 1 -2.91141,0.6875 40,40 0 0 1 -2.95432,0.46786 40,40 0 0 1 -2.98086,0.2458 40,40 0 0 1 -2.99166,0.0223 40,40 0 0 1 -2.98426,-0.20142 l -2.0906,19.89076 a 60,60 0 0 0 30.66097,-4.89216 z" />
      <path
         style="fill:#fff78d;fill-opacity:0.485136;stroke:none;stroke-width:0.0992182px;stroke-linecap:butt;stroke-linejoin:miter;stroke-opacity:1"
         d="m 99.813973,130.4427 c 1.178197,3.14035 -1.330474,27.00888 -3.135844,29.83565 3.140354,-1.1782 27.008871,1.33049 29.835651,3.13586 -1.1782,-3.14036 1.33048,-27.00889 3.13585,-29.83566 -3.14036,1.1782 -27.00888,-1.33049 -29.835657,-3.13585 z"
         id="path1965-1"
         sodipodi:nodetypes="ccccc" />
    </g>
  </g>
</svg>
